<?xml version="1.0" encoding="UTF-8" standalone="no"?>
<!-- Created with Inkscape (http://www.inkscape.org/) -->

<svg
   xmlns:dc="http://purl.org/dc/elements/1.1/"
   xmlns:cc="http://creativecommons.org/ns#"
   xmlns:rdf="http://www.w3.org/1999/02/22-rdf-syntax-ns#"
   xmlns:svg="http://www.w3.org/2000/svg"
   xmlns="http://www.w3.org/2000/svg"
   xmlns:sodipodi="http://sodipodi.sourceforge.net/DTD/sodipodi-0.dtd"
   xmlns:inkscape="http://www.inkscape.org/namespaces/inkscape"
   version="1.1"
   id="svg2"
   width="230.39999"
   height="168"
   viewBox="0 0 230.39999 168"
   sodipodi:docname="Milis-logo.svg"
   inkscape:version="0.92.1 r15371">
  <metadata
     id="metadata8">
    <rdf:RDF>
      <cc:Work
         rdf:about="">
        <dc:format>image/svg+xml</dc:format>
        <dc:type
           rdf:resource="http://purl.org/dc/dcmitype/StillImage" />
        <dc:title />
      </cc:Work>
    </rdf:RDF>
  </metadata>
  <defs
     id="defs6" />
  <sodipodi:namedview
     pagecolor="#ffffff"
     bordercolor="#666666"
     borderopacity="1"
     objecttolerance="10"
     gridtolerance="10"
     guidetolerance="10"
     inkscape:pageopacity="0"
     inkscape:pageshadow="2"
     inkscape:window-width="1366"
     inkscape:window-height="714"
     id="namedview4"
     showgrid="false"
     inkscape:zoom="1.9866333"
     inkscape:cx="121.43977"
     inkscape:cy="57.024655"
     inkscape:window-x="0"
     inkscape:window-y="0"
     inkscape:window-maximized="1"
     inkscape:current-layer="svg2" />
  <path
     style="fill:#363e4c;stroke-width:0.31999999;fill-opacity:1"
     d="m 144.32472,163.97308 c -0.13363,-0.21621 -0.25081,-1.76421 -0.2604,-3.44 -0.0154,-2.68465 -0.12189,-3.24536 -0.89593,-4.71625 -0.48317,-0.91815 -0.87849,-1.81628 -0.87849,-1.99584 0,-0.17957 0.612,-0.0443 1.36,0.30056 3.19779,1.47438 7.57596,3.18185 9.32667,3.63737 2.79747,0.72787 5.92551,3.46436 3.35125,2.93176 -1.0176,-0.21053 -1.51593,-0.49861 -4.57323,-2.64372 -0.98104,-0.68833 -1.62042,-0.88077 -2.9264,-0.88077 -2.70689,0 -4.08577,1.75153 -4.09369,5.2 -0.005,2.12524 -0.0296,2.22207 -0.40978,1.60689 z m -41.39481,-2.37017 c 0,-2.59723 0.57208,-4.48407 2.55797,-8.43672 1.51349,-3.0124 4.47091,-6.32094 9.20202,-10.29455 1.452,-1.21952 2.63951,-2.39014 2.63891,-2.60138 -9.6e-4,-0.28355 -1.4455,-0.38624 -5.52,-0.39235 -3.82349,-0.006 -5.90781,-0.14294 -6.78488,-0.4466 l -1.26598,-0.4383 3.50598,-1.66534 c 6.55166,-3.11205 13.52267,-9.15285 14.09736,-12.21624 0.47428,-2.52811 -1.16995,-2.04525 -4.42966,1.30087 -2.43825,2.50287 -3.56213,3.0684 -6.1053,3.0721 -1.74996,0.003 -5.33489,1.29732 -8.85642,3.19865 -4.568653,2.46669 -8.994523,4.52271 -10.144683,4.71267 -1.17382,0.19387 -3.1941,-0.84085 -4.66624,-2.38989 l -0.89092,-0.93746 1.29649,-0.89847 c 1.57794,-1.09351 3.60876,-3.28987 3.38166,-3.65731 -0.40386,-0.65347 -3.25222,-1.0112 -6.40363,-0.80425 l -3.25768,0.21393 -1.15414,-1.34834 c -0.63477,-0.74159 -1.56065,-2.13032 -2.0575,-3.08606 -0.72964,-1.40353 -0.8194,-1.7903 -0.46678,-2.01118 0.24011,-0.15042 2.00759,-0.45444 3.92772,-0.6756 3.32261,-0.38271 3.48144,-0.43478 3.2901,-1.07851 -0.58559,-1.97019 -1.33948,-2.4945 -5.5744,-3.87691 -4.73081,-1.54427 -6.69438,-2.75673 -8.34141,-5.1506 l -0.99895,-1.45193 3.14181,0.23063 3.14181,0.23062 -0.50233,-0.7691 c -0.49302,-0.75482 -1.89427,-1.87176 -7.31249,-5.82879 -3.16644,-2.31251 -4.62861,-4.08723 -4.93234,-5.986653 -0.11953,-0.7475 -0.1547,-1.42172 -0.0782,-1.49826 0.0765,-0.0765 0.81235,0.37468 1.63513,1.00272 0.82277,0.62804 1.67491,1.14189 1.89365,1.14189 0.21873,0 1.17653,0.581085 2.12845,1.291313 2.08975,1.55916 2.9842,1.98727 15.19336,7.272 11.40912,4.93844 16.940843,7.02295 23.191473,8.73923 10.91953,2.99826 14.57176,3.26373 21.59999,1.57004 4.3662,-1.05218 4.65478,-1.07975 11.36,-1.08554 5.85816,-0.005 7.42657,0.10137 10.56,0.71654 4.11146,0.80719 7.18388,1.6192 6.96286,1.84022 -0.14242,0.14242 -7.04841,0.91764 -11.68286,1.31143 -1.276,0.10843 -2.32,0.29525 -2.32,0.41517 0,0.62274 3.31604,2.94207 7.08757,4.95724 l 2.58384,1.38057 -2.9957,1.49946 c -1.64764,0.82469 -3.49971,1.79946 -4.11571,2.16614 -1.26372,0.75224 -3.2,2.48323 -3.2,2.86074 0,0.13695 0.468,0.49811 1.04,0.80257 0.86523,0.46053 2.17984,0.57542 7.82248,0.68365 6.14738,0.11791 6.8337,0.1867 7.32959,0.73466 0.7001,0.7736 1.77595,0.76419 4.05103,-0.0354 1.0015,-0.352 2.22051,-0.6392 2.70891,-0.63821 1.24354,0.003 3.28799,0.60766 3.28799,0.97325 0,0.16773 -0.1122,0.30496 -0.24933,0.30496 -0.13713,0 -0.80479,0.53952 -1.48368,1.19893 l -1.23436,1.19893 0.2055,4.64107 c 0.11302,2.55259 0.29562,5.75707 0.40577,7.12107 l 0.20027,2.48 h -2.00508 -2.00508 l 0.16027,2.24 c 0.0881,1.232 0.0989,2.24 0.0239,2.24 -0.075,0 -1.60378,-1.05397 -3.39727,-2.34215 -1.7935,-1.28818 -4.79175,-3.37577 -6.66279,-4.63908 l -3.40189,-2.29692 -1.93463,0.2022 -1.93463,0.20221 -2.57252,-5.13747 c -2.40895,-4.81082 -3.23979,-6.12955 -3.2306,-5.12768 0.002,0.23039 0.43412,2.57252 0.96,5.20473 1.35995,6.80695 1.3612,6.80031 -1.04748,5.57149 -0.73598,-0.37547 -1.73824,-0.79741 -2.22725,-0.93766 -0.88277,-0.25317 -0.88912,-0.24419 -0.88912,1.25841 v 1.51341 l -1.04,-0.11978 c -1.41515,-0.163 -6.49063,0.90854 -12.60288,2.66073 -10.15376,2.91075 -15.62212,5.44053 -19.23711,8.89951 l -1.36,1.3013 z m 64.13819,-1.74981 c -0.0234,-3.74728 -0.004,-3.78486 1.66769,-3.14946 0.48816,0.18559 3.2126,0.47049 6.05432,0.6331 7.17196,0.41041 7.74444,0.75089 2.02788,1.20608 -2.53445,0.20181 -5.15202,0.52248 -5.81683,0.7126 -1.41006,0.40326 -3.42907,2.06253 -3.43616,2.82392 -0.003,0.28977 -0.11069,0.69196 -0.24,0.89376 -0.1293,0.20179 -0.24491,-1.20221 -0.2569,-3.12 z m 15.0228,-13.29031 c 0.58529,-3.34135 0.6043,-4.25876 0.10406,-5.02222 -0.57884,-0.88341 -2.23113,-1.3221 -3.14251,-0.83434 -0.51222,0.27413 -0.58657,0.53969 -0.41187,1.47095 0.2027,1.08045 0.17997,1.11864 -0.46141,0.77538 -1.33018,-0.71189 -1.61551,-1.92186 -0.87253,-3.70004 l 0.45673,-1.09312 1.33879,0.52589 c 1.25336,0.49233 1.44069,0.4897 2.93582,-0.0413 1.58703,-0.56366 1.6001,-0.56284 2.0863,0.13131 0.72654,1.03729 2.36746,1.59092 4.71534,1.59092 2.39955,0 2.50044,0.16624 1.41579,2.33275 -1.42314,2.84261 -3.62783,4.45498 -6.65332,4.86583 l -1.72781,0.23463 z m 4.47854,-10.08687 c -0.37425,-0.41235 -1.08186,-1.39773 -1.57246,-2.18973 -1.15473,-1.86413 -1.64833,-2.21747 -3.115,-2.22982 -1.3021,-0.011 -1.6785,0.49529 -2.05864,2.7689 l -0.17039,1.01908 -1.28541,-0.85065 -1.28541,-0.85064 -1.06587,1.23303 -1.06588,1.23304 -1.75888,-1.60752 c -2.75729,-2.52001 -5.43292,-3.15087 -9.1416,-2.15542 -2.6638,0.715 -3.08635,0.64826 -3.32089,-0.52447 l -0.20089,-1.00446 -1.67911,0.20382 c -0.92351,0.11211 -2.90311,0.27698 -4.39911,0.36639 l -2.72,0.16256 2.56,-1.26458 c 1.408,-0.69552 3.64,-1.65443 4.96,-2.13092 1.32,-0.47648 2.45652,-0.9128 2.5256,-0.9696 0.37777,-0.31062 -0.98682,-1.17449 -3.74174,-2.36876 -1.70712,-0.74004 -3.31471,-1.54453 -3.57243,-1.78776 -0.40214,-0.37953 -0.22067,-0.44263 1.28,-0.44512 3.31648,-0.006 13.7415,-2.82429 15.46799,-4.18235 1.49516,-1.1761 1.14587,-2.00966 -1.47942,-3.53053 -3.07015,-1.77859 -10.98692,-7.05263 -12.4,-8.2607 l -1.12,-0.95751 1.78123,-0.013 c 3.74435,-0.0273 8.67586,1.29452 14.7747,3.96025 7.31833,3.19876 11.54175,5.96014 15.90486,10.39904 2.58289,2.62776 2.71019,2.71278 2.91617,1.9477 0.19726,-0.73269 0.28962,-0.64241 1.09782,1.07309 0.66661,1.41498 0.96223,2.70634 1.20869,5.28 0.37953,3.96312 0.077,5.57907 -1.34169,7.16687 -0.8219,0.91987 -1.11254,1.02634 -3.10429,1.13719 -1.98051,0.11024 -2.26468,0.0483 -2.87795,-0.62742 z m -4.91954,-1.06973 c 0,-1.62785 0.51477,-1.88524 1.6,-0.8 0.65113,0.65113 0.89336,1.47435 0.33167,1.12721 -0.16958,-0.1048 -0.60158,0.1027 -0.96,0.46112 -0.35842,0.35842 -0.72367,0.65167 -0.81167,0.65167 -0.088,0 -0.16,-0.648 -0.16,-1.44 z m -20.32,-19.87759 c -0.88,-0.25321 -2.77945,-0.6757 -4.221,-0.93888 -1.44154,-0.26318 -3.22757,-0.69253 -3.96895,-0.9541 -0.74138,-0.26157 -3.23393,-0.68447 -5.539,-0.93978 -4.68006,-0.51835 -11.64931,-0.25528 -15.71105,0.59304 -1.232,0.25731 -3.35313,0.62112 -4.71362,0.80847 l -2.47363,0.34063 -5.04637,-2.42365 c -9.3216,-4.47692 -15.70565,-6.81243 -23.606373,-8.63604 -6.85372,-1.58194 -6.52574,-1.42138 -9.29107,-4.548613 -3.53344,-3.99587 -13.68327,-19.410693 -16.05521,-24.38348 C 63.138297,58.58549 53.370287,51.983666 26.929907,44.861208 13.462657,41.233423 10.058807,40.206331 7.7299172,39.06773 c -4.23556,-2.070781 -4.45828,-2.757277 -0.5727,-1.7652 3.6211898,0.924573 11.5972398,2.179117 17.2809798,2.718109 3.84792,0.364902 5.18934,0.382425 6.4,0.08361 0.84244,-0.207929 1.49122,-0.522054 1.44173,-0.698054 -0.0495,-0.176 -1.99348,-1.116141 -4.32,-2.089203 -4.15108,-1.736184 -8.74092,-4.250411 -11.90899,-6.52352 -0.87944,-0.631001 -1.42906,-1.147275 -1.22139,-1.147275 0.20768,0 2.87122,0.870876 5.91898,1.93528 7.33159,2.560499 14.46443,4.705696 21.70138,6.526682 6.77314,1.704278 7.6778,1.974588 13.03487,3.894787 3.91165,1.402096 4.97397,1.671462 4.38913,1.112921 -0.1672,-0.15968 -3.544,-1.775814 -7.504,-3.591411 -12.45516,-5.710486 -27.34641,-15.338273 -30.49469,-19.716024 -0.53705,-0.74677 -0.91499,-1.419221 -0.83987,-1.494334 0.0751,-0.07511 1.43211,0.863525 3.01556,2.085864 1.58345,1.222338 4.0019,2.789897 5.37434,3.483463 1.37243,0.693566 2.91331,1.558655 3.42417,1.922421 4.29916,3.061272 20.46196,8.898543 23.75915,8.580725 1.03565,-0.09983 1.01073,-0.131865 -4.55866,-5.861292 -5.33483,-5.48813 -9.6,-10.607622 -9.6,-11.522903 0,-0.233215 -0.504,-1.475699 -1.12,-2.761076 -1.19616,-2.495978 -1.50872,-3.860787 -0.57398,-2.506305 2.74438,3.976713 11.22348,12.896813 15.84414,16.668199 7.39134,6.032824 22.32984,14.539048 22.32984,12.714974 0,-0.539974 -1.47333,-3.093619 -5.64925,-9.791561 -4.36128,-6.995232 -6.76073,-11.687918 -8.34482,-16.320256 -1.07346,-3.139118 -1.1777,-3.753656 -1.19117,-7.0227635 -0.0176,-4.269139 0.50983,-5.465836 1.08049,-2.451601 1.21915,6.4395225 2.94892,10.5885075 6.98509,16.7542105 8.03196,12.269709 23.89381,26.863309 38.031103,34.990282 2.5582,1.470608 4.92855,2.009596 4.92855,1.120691 0,-0.202967 -0.23229,-2.395571 -0.51621,-4.872458 -0.54344,-4.740835 -0.5075,-11.750816 0.0654,-12.760973 0.24116,-0.425222 0.33767,-0.05671 0.39553,1.510365 0.2099,5.685117 3.93715,14.231299 8.32355,19.084983 1.25361,1.387155 2.33758,2.192944 4.07274,3.027516 2.5721,1.237136 2.47276,1.085159 3.33341,5.099594 1.15195,5.37319 2.8551,10.685869 4.87285,15.2 3.62878,8.118323 6.95617,12.88721 13.48932,19.333173 4.54536,4.4847 6.53196,6.10218 11.9634,9.74052 1.628,1.09055 2.96,2.05109 2.96,2.13455 0,0.23546 -0.65968,0.1349 -2.4,-0.36584 z m 19.61779,-6.17172 c -2.83517,-1.92913 -3.77355,-2.35213 -10.13362,-4.56799 -4.97693,-1.73396 -8.27583,-2.39199 -14.28417,-2.84925 -5.84222,-0.44462 -6.13235,-0.55663 -8.40465,-3.244893 -1.60995,-1.90467 -4.35005,-6.298096 -4.72293,-7.572652 -0.20739,-0.708896 -0.15739,-0.74826 0.69202,-0.544813 0.50356,0.120608 2.80668,0.302665 5.11804,0.404573 5.19319,0.228963 7.89091,-0.293098 11.89746,-2.302394 4.41841,-2.215846 6.46006,-4.821434 6.46006,-8.244416 0,-2.265898 -0.52389,-3.348643 -2.34052,-4.837238 -2.04272,-1.673856 -4.18462,-2.512442 -6.85948,-2.685594 -3.99844,-0.258832 -2.53123,-0.592026 2.4,-0.545027 5.03022,0.04794 4.61011,-0.03314 13.2,2.547549 2.27222,0.682649 5.01751,1.274832 6.35565,1.370966 l 2.35564,0.169235 -0.23618,-0.764368 c -1.11258,-3.600637 -5.32697,-6.750941 -14.10443,-10.543213 -4.74986,-2.052163 -4.76439,-2.061619 -3.33068,-2.167011 2.24092,-0.164723 7.2792,0.558583 9.85387,1.414643 3.48447,1.158567 5.75008,2.404592 11.66516,6.41554 5.56825,3.775763 6.63387,4.204784 7.3093,2.942729 0.58579,-1.094557 0.19684,-6.765629 -0.62038,-9.04535 -1.47851,-4.12448 -4.76984,-8.227143 -9.13089,-11.381709 -1.57014,-1.135766 -2.25056,-1.799203 -1.9184,-1.870531 0.69562,-0.149373 4.70309,1.866502 6.70121,3.370912 2.12048,1.596534 10.00922,8.457446 13.88284,12.074048 5.82136,5.435094 7.69379,5.937197 8.69337,2.331171 0.48571,-1.752211 -0.0328,-6.080102 -1.17711,-9.8256 -1.10777,-3.625821 -4.25232,-10.021491 -5.88278,-11.964966 -0.72211,-0.860733 -1.25514,-1.622749 -1.18452,-1.693373 0.0706,-0.07062 0.99044,0.376819 2.04404,0.994313 6.06861,3.556717 11.45334,13.427098 12.94198,23.723063 0.38527,2.664627 0.40279,2.700963 1.30231,2.700963 3.41167,0 6.88981,-5.47631 6.99786,-11.01808 0.0208,-1.068058 0.14146,-2.37392 0.26809,-2.90192 l 0.23022,-0.96 0.29022,0.96 c 0.15962,0.528 0.28479,3.552 0.27816,6.72 -0.0112,5.34193 -0.0751,5.964118 -0.88046,8.572262 -1.07942,3.495658 -2.77186,6.898154 -4.23899,8.522093 -1.90128,2.10449 -4.08672,3.58985 -15.8276,10.757421 -6.24663,3.813434 -12.2935,7.599747 -13.4375,8.414037 -2.82872,2.01347 -6.91623,5.96902 -7.89629,7.64137 -0.44249,0.75505 -0.97209,1.37281 -1.1769,1.37281 -0.2048,0 -1.62187,-0.85019 -3.14902,-1.88931 z"
     id="path4487"
     inkscape:connector-curvature="0" />
</svg>
