<?xml version="1.0" encoding="UTF-8" standalone="no"?>
<!-- Created with Inkscape (http://www.inkscape.org/) -->

<svg
   xmlns:dc="http://purl.org/dc/elements/1.1/"
   xmlns:cc="http://creativecommons.org/ns#"
   xmlns:rdf="http://www.w3.org/1999/02/22-rdf-syntax-ns#"
   xmlns:svg="http://www.w3.org/2000/svg"
   xmlns="http://www.w3.org/2000/svg"
   xmlns:sodipodi="http://sodipodi.sourceforge.net/DTD/sodipodi-0.dtd"
   xmlns:inkscape="http://www.inkscape.org/namespaces/inkscape"
   version="1.1"
   id="svg2"
   xml:space="preserve"
   width="256"
   height="256"
   viewBox="0 0 256 256"
   sodipodi:docname="icon.svg"
   inkscape:version="0.92.1 r15371"><metadata
     id="metadata8"><rdf:RDF><cc:Work
         rdf:about=""><dc:format>image/svg+xml</dc:format><dc:type
           rdf:resource="http://purl.org/dc/dcmitype/StillImage" /><dc:title /></cc:Work></rdf:RDF></metadata><defs
     id="defs6"><clipPath
       clipPathUnits="userSpaceOnUse"
       id="clipPath58"><path
         d="m 1892.86,10015 c -66.63,0 -120.83,54.2 -120.83,120.8 h 49.71 c 0,-39.3 31.84,-71.1 71.12,-71.1 39.27,0 71.11,31.8 71.11,71.1 h 49.71 c 0,-66.6 -54.2,-120.8 -120.82,-120.8"
         id="path56"
         inkscape:connector-curvature="0" /></clipPath></defs><sodipodi:namedview
     pagecolor="#ffffff"
     bordercolor="#666666"
     borderopacity="1"
     objecttolerance="10"
     gridtolerance="10"
     guidetolerance="10"
     inkscape:pageopacity="0"
     inkscape:pageshadow="2"
     inkscape:window-width="1366"
     inkscape:window-height="715"
     id="namedview4"
     showgrid="false"
     inkscape:zoom="0.295"
     inkscape:cx="-315.19631"
     inkscape:cy="-158.46603"
     inkscape:window-x="0"
     inkscape:window-y="25"
     inkscape:window-maximized="1"
     inkscape:current-layer="g10" /><g
     id="g10"
     inkscape:groupmode="layer"
     inkscape:label="ink_ext_XXXXXX"
     transform="matrix(1.3333333,0,0,-1.3333333,0,256)"><g
       id="g74"><path
         d="m 81.326928,81.334717 c -8.090437,8.09823 -8.090437,21.226483 0,29.324703 8.102903,8.09823 21.238952,8.09823 29.326272,0 8.10291,-8.09822 8.10291,-21.226473 0,-29.324703 -8.08732,-8.09667 -21.223369,-8.09667 -29.326272,0 m 80.966702,80.951103 c -36.61889,36.6111 -95.975771,36.6111 -132.585308,0 -36.6110958,-36.60954 -36.6110958,-95.966403 0,-132.577498 36.609537,-36.611096 95.966418,-36.611096 132.585308,0 36.6033,36.611095 36.6033,95.967958 0,132.577498"
         style="fill:#76c4c3;fill-opacity:1;fill-rule:nonzero;stroke:none;stroke-width:0.15582505"
         id="path626"
         inkscape:connector-curvature="0" /><path
         d="m 95.990064,2.25039 v 0 0 c 7.090036,0 14.164496,0.797824 21.098716,2.391914 C 110.15456,3.048214 103.0801,2.25039 95.990064,2.25039"
         style="fill:#cd9230;fill-opacity:1;fill-rule:nonzero;stroke:none;stroke-width:0.15582505"
         id="path632"
         inkscape:connector-curvature="0" /><path
         d="m 95.990064,2.25039 v 63.536097 c 7.744506,0 15.489006,2.94666 21.379196,8.8384 11.78038,11.78505 11.78038,30.959313 0,42.744363 -5.89019,5.89175 -13.63469,8.8384 -21.379196,8.8384 v 63.5361 c 23.997056,0 47.994116,-9.15316 66.303566,-27.45793 18.29386,-18.30477 27.45637,-42.29715 27.45637,-66.287963 0,-23.99239 -9.16251,-47.98477 -27.45637,-66.289535 v 0 C 149.37573,16.806008 133.65298,8.450668 117.08878,4.642304 110.15456,3.048214 103.0801,2.25039 95.990064,2.25039"
         style="fill:#63a7a9;fill-opacity:1;fill-rule:nonzero;stroke:none;stroke-width:0.15582505"
         id="path634"
         inkscape:connector-curvature="0" /><path
         d="m 95.990064,75.262217 v 0 c 5.313636,0 10.627266,2.02416 14.663136,6.0725 -4.03587,-4.04834 -9.3495,-6.0725 -14.663136,-6.0725 m 14.709886,35.348903 c -0.0156,0.0156 -0.0312,0.0327 -0.0468,0.0483 -4.03587,4.04834 -9.3495,6.07251 -14.663136,6.07251 v 0 0 c 5.313636,0 10.627266,-2.02417 14.663136,-6.07251 0.0156,-0.0156 0.0312,-0.0327 0.0468,-0.0483"
         style="fill:#cd9230;fill-opacity:1;fill-rule:nonzero;stroke:none;stroke-width:0.15582505"
         id="path636"
         inkscape:connector-curvature="0" /><path
         d="m 95.990064,70.007787 v 5.25443 0 c 5.313636,0 10.627266,2.02416 14.663136,6.0725 v 0 c 8.08732,8.08264 8.10291,21.175053 0.0468,29.276403 -0.0156,0.0156 -0.0312,0.0327 -0.0468,0.0483 -4.03587,4.04834 -9.3495,6.07251 -14.663136,6.07251 v 5.25442 c 6.669306,0 13.323036,-2.53372 18.387356,-7.60271 10.14421,-10.13798 10.14421,-26.633603 0,-36.773143 -5.06432,-5.06899 -11.71805,-7.60271 -18.387356,-7.60271"
         style="fill:#63a7a9;fill-opacity:1;fill-rule:nonzero;stroke:none;stroke-width:0.15582505"
         id="path638"
         inkscape:connector-curvature="0" /><path
         inkscape:connector-curvature="0"
         id="path2091"
         d="m 53.937084,149.24053 c -0.235875,0.008 -0.398527,-1.17644 -0.389647,-3.32959 0.01087,-2.63804 0.0947,-3.13287 0.960937,-5.66601 1.278301,-3.73812 3.214493,-7.52553 6.733883,-13.17042 3.36981,-5.40498 4.56006,-7.46562 4.56006,-7.90136 0,-1.47196 -12.05598,5.3915 -18.020505,10.25976 -3.7287,3.04337 -10.570553,10.2426 -12.785161,13.45166 -0.754297,1.09302 -0.502357,-0.009 0.462893,-2.02294 0.497092,-1.03727 0.90381,-2.03983 0.90381,-2.22803 0,-0.73859 3.442545,-4.87012 7.747553,-9.29883 4.494285,-4.62343 4.513957,-4.64938 3.678225,-4.72998 -2.660708,-0.25646 -15.704078,4.45398 -19.173338,6.92432 -0.412238,0.29353 -1.65519,0.99159 -2.762693,1.55127 -1.10751,0.55967 -3.059625,1.82465 -4.337407,2.81103 -1.27779,0.98638 -2.372505,1.7437 -2.433105,1.6831 -0.06062,-0.0606 0.244845,-0.60295 0.678225,-1.20556 2.54055,-3.53269 14.557072,-11.30153 24.607913,-15.90967 3.195562,-1.46512 5.920732,-2.77007 6.055657,-2.89892 0.471945,-0.45072 -0.385432,-0.23203 -3.541987,0.89941 -4.322955,1.54953 -5.053388,1.7668 -10.519043,3.14209 -5.839943,1.46946 -11.595893,3.20136 -17.512208,5.26757 -2.45943,0.85895 -4.607805,1.56153 -4.775393,1.56153 -0.16758,0 0.274703,-0.41659 0.984375,-0.92578 2.55651,-1.83432 6.261083,-3.86361 9.610838,-5.26465 1.877415,-0.78523 3.44643,-1.54402 3.48633,-1.68604 0.03994,-0.14202 -0.483262,-0.39469 -1.163085,-0.5625 -0.976957,-0.24111 -2.05992,-0.22707 -5.16504,0.0674 -4.586573,0.43495 -11.023155,1.44678 -13.9453123,2.19287 -0.736245,0.18798 -1.27335,0.29523 -1.64502,0.33691 -0.05031,-0.17208 -0.097177,-0.34477 -0.1464825,-0.51709 0.4267125,-0.29846 1.15329,-0.70603 2.252925,-1.24365 1.8793198,-0.91881 4.6260968,-1.74831 15.4936578,-4.67578 21.336375,-5.74755 29.219768,-11.07503 35.324708,-23.874029 1.91406,-4.012853 10.103715,-16.451258 12.95508,-19.675778 2.231498,-2.523555 1.967843,-2.39433 7.498531,-3.670905 6.375592,-1.471575 11.526652,-3.357023 19.04883,-6.969721 l 4.072272,-1.955572 1.99658,0.275392 c 1.09786,0.151185 2.80856,0.444218 3.80273,0.651855 3.27768,0.684563 8.90159,0.897293 12.67823,0.479003 1.8601,-0.206018 3.87243,-0.547718 4.4707,-0.758783 0.59826,-0.21108 2.03887,-0.556665 3.20215,-0.76905 1.16327,-0.21237 2.69709,-0.554452 3.40722,-0.758782 1.40438,-0.404078 1.93653,-0.48444 1.93653,-0.294435 0,0.06735 -1.07542,0.842625 -2.38916,1.722652 -4.38296,2.93601 -5.98538,4.241378 -9.65332,7.860353 -4.89714,4.831808 -7.56438,8.523128 -10.26563,14.270513 -0.33762,-0.391718 -0.68588,-0.778388 -1.05761,-1.149908 -8.08733,-8.09667 -21.223282,-8.09667 -29.326177,0 -8.090446,8.098231 -8.090446,21.226495 0,29.324715 0.279135,0.27898 0.564795,0.54738 0.855465,0.80713 -8.839643,6.5771 -17.414813,15.17788 -22.340333,22.70214 -3.257018,4.9755 -4.652918,8.32407 -5.636716,13.52052 -0.172695,0.91214 -0.340417,1.3457 -0.481935,1.35058 z m 40.548339,-29.6499 c -0.0354,-6.1e-4 -0.07733,-0.0461 -0.125977,-0.13183 -0.17478,-0.30823 -0.287865,-1.31067 -0.336915,-2.64258 0.26139,0.0275 0.523087,0.0483 0.78516,0.0659 -0.06433,0.46841 -0.112965,0.92602 -0.12891,1.35792 -0.03502,0.94839 -0.08716,1.35241 -0.193358,1.35058 z m 71.598637,-4.15283 c -0.057,-0.057 0.37383,-0.67212 0.95655,-1.3667 1.31573,-1.56831 3.85216,-6.73035 4.74609,-9.65625 0.92338,-3.02248 1.34263,-6.513774 0.95068,-7.927742 -0.80663,-2.909932 -2.31752,-2.50506 -7.01513,1.880858 -3.12586,2.918464 -9.49198,8.454344 -11.20313,9.742684 -1.6124,1.21401 -4.84686,2.84075 -5.40821,2.72021 -0.26803,-0.0575 0.28131,-0.59226 1.54835,-1.50879 3.51921,-2.54561 6.17506,-5.85627 7.36816,-9.18457 0.65947,-1.839652 0.97368,-6.416062 0.50098,-7.299322 -0.54506,-1.018425 -1.40556,-0.672397 -5.89893,2.374515 -4.77324,3.236678 -6.60124,4.24185 -9.41308,5.176757 -2.07766,0.69082 -6.14285,1.27405 -7.95117,1.14112 -1.15695,-0.085 -1.14498,-0.0915 2.68798,-1.747564 7.08307,-3.060218 10.48403,-5.60223 11.38184,-8.507813 l 0.19043,-0.618165 -1.90137,0.1377 c -1.07984,0.07758 -3.29483,0.555075 -5.12842,1.10595 -6.93172,2.082578 -6.59315,2.016578 -10.65234,2.05518 -3.97931,0.03793 -5.16312,-0.230572 -1.93652,-0.439455 2.1585,-0.139717 3.88724,-0.815775 5.53564,-2.166502 1.46595,-1.201253 1.88818,-2.075318 1.88818,-3.90381 0,-2.76222 -1.64788,-4.865213 -5.21338,-6.653318 -3.23313,-1.621425 -5.40988,-2.042183 -9.60058,-1.85742 -1.86518,0.08223 -3.72304,0.22929 -4.1294,0.326655 -0.68544,0.164167 -0.72545,0.1326 -0.5581,-0.439455 0.3009,-1.02852 2.5109,-4.574333 3.81006,-6.111323 1.83367,-2.16933 2.06776,-2.260342 6.78223,-2.619142 4.84849,-0.368985 7.51066,-0.8991 11.52685,-2.298338 5.13234,-1.788112 5.89034,-2.130277 8.17822,-3.687015 1.23234,-0.83853 2.37477,-1.5249 2.54004,-1.5249 0.16527,0 0.59361,0.49959 0.95068,1.108882 0.79088,1.349521 4.08941,4.540741 6.37208,6.165533 0.92316,0.657105 5.80198,3.71226 10.84277,6.789548 9.47445,5.783962 11.23918,6.983888 12.77344,8.682128 1.18392,1.31046 2.54935,4.055107 3.42041,6.875977 0.64989,2.104665 0.70145,2.607728 0.71045,6.918458 0.005,2.556459 -0.0953,4.996779 -0.22412,5.422859 l -0.23438,0.77344 -0.18604,-0.77344 c -0.10218,-0.42608 -0.19999,-1.4804 -0.21679,-2.34229 -0.0872,-4.471992 -2.89389,-8.891607 -5.64697,-8.891607 -0.72588,0 -0.73941,0.02944 -1.0503,2.179688 -1.20128,8.308459 -5.54719,16.273929 -10.44433,19.144049 -0.85021,0.4983 -1.59242,0.85974 -1.64942,0.80274 z M 53.244212,74.384083 c -0.06163,-0.06176 -0.03351,-0.605303 0.06299,-1.208498 0.2451,-1.532767 1.424782,-2.964952 3.97998,-4.831057 4.37229,-3.193178 5.502548,-4.094498 5.900393,-4.703611 l 0.405765,-0.621097 -2.535645,0.186037 -2.535645,0.186038 0.807127,-1.171875 c 1.32909,-1.93176 2.913375,-2.909603 6.730958,-4.155765 3.41742,-1.115558 4.025992,-1.539038 4.498537,-3.128903 0.154395,-0.519472 0.02545,-0.561277 -2.655765,-0.87012 -1.549462,-0.17847 -2.974687,-0.423532 -3.168457,-0.54492 -0.28455,-0.178245 -0.212325,-0.490447 0.376462,-1.623052 0.400943,-0.771248 1.14744,-1.891793 1.659675,-2.490233 l 0.931635,-1.088377 2.629395,0.172852 c 2.54307,0.167003 4.840606,-0.121597 5.166503,-0.64893 0.183263,-0.296505 -1.455668,-2.069235 -2.729003,-2.951655 l -1.045897,-0.7251 0.719242,-0.755858 c 1.187955,-1.250017 2.817406,-2.085645 3.764648,-1.929202 0.928125,0.153292 4.500278,1.81221 8.187008,3.80274 2.841742,1.534298 5.734822,2.578553 7.146975,2.58105 2.05224,0.003 2.95869,0.460253 4.92627,2.47998 2.630453,2.700195 3.956947,3.088913 3.574217,1.04883 -0.463749,-2.472045 -6.089034,-7.345628 -11.375972,-9.856935 l -2.828618,-1.344728 1.020998,-0.353025 c 0.707767,-0.24504 2.390175,-0.355552 5.475585,-0.360352 3.287963,-0.0049 4.453808,-0.08906 4.454588,-0.317873 4.8e-4,-0.17046 -0.95817,-1.11501 -2.12988,-2.099122 -3.817831,-3.20655 -6.203971,-5.876235 -7.425293,-8.307128 -1.60254,-3.189638 -2.063963,-4.71126 -2.063963,-6.807128 v -1.820797 l 1.097168,1.048822 c 2.917155,2.791268 7.329255,4.83327 15.522947,7.182136 4.93236,1.413945 9.0284,2.278995 10.17041,2.14746 l 0.83936,-0.09668 v 1.221683 c 0,1.21254 0.005,1.219432 0.71777,1.015132 0.39462,-0.113175 1.20346,-0.454335 1.79736,-0.75732 1.94371,-0.991612 1.94263,-0.997342 0.84522,4.495605 -0.42437,2.12409 -0.7739,4.015253 -0.7749,4.20117 -0.007,0.80847 0.66348,-0.256035 2.60742,-4.138185 l 2.07568,-4.145505 1.56153,0.162593 1.56005,0.16407 2.74512,-1.854495 c 1.50986,-1.019445 3.93016,-2.703165 5.37744,-3.74268 1.44728,-1.039508 2.68012,-1.891111 2.74072,-1.891111 0.0605,0 0.0521,0.813443 -0.019,1.807621 l -0.12891,1.807612 h 1.61867 1.61718 l -0.16113,2.000978 c -0.0889,1.1007 -0.23693,3.686737 -0.32813,5.746582 l -0.16552,3.745605 0.9961,0.968265 c 0.54784,0.532118 1.08611,0.966795 1.19677,0.966795 0.1107,0 0.20215,0.110745 0.20215,0.24609 0,0.29502 -1.65082,0.782663 -2.6543,0.78516 -0.39412,7.95e-4 -1.37736,-0.230107 -2.18554,-0.514162 -1.8359,-0.64524 -2.70458,-0.653558 -3.26954,-0.0293 -0.40017,0.442185 -0.95286,0.498112 -5.91357,0.593265 -4.55339,0.08734 -5.61528,0.179145 -6.31347,0.550777 -0.46158,0.245685 -0.83937,0.53841 -0.83937,0.648923 0,0.304642 1.56275,1.7001 2.58252,2.307135 0.49709,0.295898 1.99269,1.083525 3.32227,1.749023 l 2.417,1.20996 -2.08594,1.113277 c -3.04349,1.626173 -5.71875,3.49797 -5.71875,4.000493 0,0.09677 0.84239,0.24798 1.87207,0.335445 3.73983,0.317775 9.31281,0.942697 9.42773,1.05762 0.17836,0.178357 -2.30136,0.83397 -5.61914,1.485352 -2.52856,0.496448 -3.79368,0.582915 -8.52099,0.57861 -5.41087,-0.0047 -5.64365,-0.02691 -9.167,-0.87597 -5.67152,-1.366747 -8.618522,-1.152405 -17.430182,1.267088 -5.044013,1.384972 -9.508118,3.066622 -18.714848,7.051755 -9.85233,4.264583 -10.5744,4.60998 -12.260738,5.868165 -0.768172,0.573128 -1.54029,1.042973 -1.716802,1.042973 -0.17652,0 -0.865343,0.414577 -1.529296,0.921382 -0.663945,0.506805 -1.256557,0.870353 -1.318357,0.808598 z m 76.356448,-7.68018 -1.43701,-0.01025 0.90381,-0.773437 c 1.1403,-0.974865 7.52886,-5.231243 10.00635,-6.666503 2.11851,-1.227285 2.40039,-1.898595 1.19385,-2.84766 -1.39321,-1.095908 -9.80567,-3.370695 -12.48194,-3.375 -1.21098,-0.002 -1.35722,-0.05408 -1.03271,-0.360353 0.20797,-0.196267 1.50523,-0.845685 2.88281,-1.442865 2.22312,-0.963727 3.3239,-1.659502 3.01904,-1.91016 -0.0557,-0.04583 -0.9724,-0.399187 -2.0376,-0.78369 -1.06518,-0.38451 -2.8672,-1.157002 -4.00341,-1.718265 l -2.06544,-1.02099 2.19435,0.130365 c 1.2072,0.07216 2.80554,0.205433 3.55077,0.295905 l 1.35498,0.165525 0.1626,-0.811522 c 0.18927,-0.946351 0.52962,-1.000321 2.6792,-0.423346 2.99277,0.803296 5.15193,0.294788 7.37695,-1.73877 l 1.41944,-1.297845 0.85986,0.99609 0.85987,0.994628 1.0371,-0.687008 1.03711,-0.685552 0.1377,0.821782 c 0.30675,1.834718 0.61038,2.242786 1.66113,2.233883 1.18355,-0.01 1.58186,-0.294547 2.51367,-1.798823 0.3959,-0.63912 0.96803,-1.433857 1.27002,-1.766602 0.49489,-0.54528 0.72357,-0.5958 2.32178,-0.506835 1.60726,0.08944 1.84165,0.176152 2.50488,0.91845 1.1448,1.2813 1.38879,2.585123 1.08252,5.783205 -0.19888,2.076855 -0.43765,3.1194 -0.97558,4.26123 -0.65219,1.38435 -0.72559,1.45698 -0.88477,0.865725 -0.16622,-0.617392 -0.2697,-0.548722 -2.354,1.571775 -3.52086,3.58203 -6.92936,5.80935 -12.83496,8.390625 -4.92153,2.151151 -8.90081,3.218356 -11.92237,3.196291 z m 19.58936,-22.445799 c -0.3355,0.0375 -0.49659,-0.350865 -0.49659,-1.171875 0,-0.639112 0.0579,-1.161622 0.12891,-1.161622 0.071,0 0.36557,0.236647 0.65479,0.525877 0.28924,0.289238 0.63806,0.456638 0.7749,0.372068 0.45326,-0.280125 0.25737,0.384232 -0.26806,0.909675 -0.32841,0.328402 -0.59265,0.503377 -0.79395,0.525877 z m -3.63428,-3.394042 -0.36767,-0.881835 c -0.59955,-1.434923 -0.36881,-2.41089 0.70459,-2.985353 0.51758,-0.276997 0.53564,-0.246397 0.37206,0.625485 -0.14097,0.751493 -0.0808,0.96531 0.33252,1.186523 0.73545,0.393607 2.06855,0.04051 2.53565,-0.67236 0.40375,-0.616088 0.38881,-1.356878 -0.0835,-4.053225 l -0.17578,-0.99756 1.39453,0.18897 c 2.44146,0.331537 4.22024,1.633365 5.36866,3.92724 0.87527,1.748295 0.79377,1.882327 -1.14258,1.882327 -1.89465,0 -3.21791,0.446145 -3.8042,1.283205 -0.39235,0.560145 -0.4039,0.560318 -1.68457,0.105465 -1.20652,-0.42849 -1.35725,-0.429517 -2.36865,-0.03223 z M 117.01766,28.288377 c -0.0557,-0.0058 -0.0864,-0.0253 -0.0864,-0.06152 0,-0.1449 0.31908,-0.87042 0.70899,-1.61133 0.62466,-1.18695 0.70976,-1.639253 0.72216,-3.805665 0.008,-1.352295 0.1031,-2.601405 0.21094,-2.775878 0.30678,-0.496425 0.32559,-0.418605 0.32959,1.29639 0.006,2.782778 1.12033,4.196775 3.30469,4.196775 1.05387,0 1.56966,-0.154995 2.36133,-0.710452 2.46711,-1.731023 2.86876,-1.964385 3.68994,-2.134275 2.07732,-0.429788 -0.44665,1.778362 -2.70411,2.365725 -1.41274,0.367582 -4.94587,1.745775 -7.52636,2.935545 -0.45271,0.208718 -0.84355,0.322073 -1.01074,0.304688 z m 20.47265,-2.144536 c -0.57257,0.06604 -0.57806,-0.516727 -0.56396,-2.784667 0.01,-1.54758 0.10217,-2.680898 0.20654,-2.518065 0.10437,0.162847 0.19136,0.48687 0.19336,0.720705 0.006,0.614415 1.63509,1.953877 2.77295,2.279295 0.53648,0.15342 2.64961,0.411367 4.69483,0.574222 4.61304,0.36732 4.15126,0.64293 -1.63624,0.974115 -2.29316,0.13122 -4.49279,0.36147 -4.88672,0.51123 -0.33719,0.12819 -0.5899,0.221153 -0.78076,0.243165 z"
         style="fill:#63a7a9;fill-opacity:1;fill-rule:nonzero;stroke:none;stroke-width:0.15582505" /><path
         d="m 114.37742,114.38364 c -10.12863,10.13798 -26.6305,10.13798 -36.766919,0 -10.137978,-10.13798 -10.137978,-26.633603 0,-36.773143 10.136419,-10.13798 26.638289,-10.13798 36.766919,0 10.14421,10.13954 10.14421,26.635163 0,36.773143 M 74.624893,74.624887 c -11.785049,11.78505 -11.785049,30.959313 0,42.744363 11.781932,11.78505 30.963987,11.78505 42.744367,0 11.78038,-11.78505 11.78038,-30.959313 0,-42.744363 -11.78038,-11.78349 -30.962435,-11.78349 -42.744367,0"
         style="fill:#e45153;fill-opacity:1;fill-rule:nonzero;stroke:none;stroke-width:0.15582505"
         id="path630"
         inkscape:connector-curvature="0" /><path
         d="m 95.990064,65.786487 v 4.2213 c 6.669306,0 13.323036,2.53372 18.387356,7.60271 10.14421,10.13954 10.14421,26.635163 0,36.773143 -5.06432,5.06899 -11.71805,7.60271 -18.387356,7.60271 v 4.2213 c 7.744506,0 15.489006,-2.94665 21.379196,-8.8384 11.78038,-11.78505 11.78038,-30.959313 0,-42.744363 -5.89019,-5.89174 -13.63469,-8.8384 -21.379196,-8.8384"
         style="fill:#c74849;fill-opacity:1;fill-rule:nonzero;stroke:none;stroke-width:0.15582505"
         id="path640"
         inkscape:connector-curvature="0" /><path
         id="path2131"
         d="m 166.08399,115.43848 c -0.057,-0.057 0.37382,-0.67212 0.95654,-1.36671 1.31573,-1.56831 3.85216,-6.73035 4.7461,-9.65625 0.92337,-3.02247 1.34263,-6.513763 0.95068,-7.92773 -0.80663,-2.909933 -2.31753,-2.50506 -7.01514,1.880858 -3.12586,2.918472 -9.49198,8.454342 -11.20312,9.742682 -1.61241,1.21401 -4.84686,2.84075 -5.40821,2.72021 -0.26803,-0.0575 0.2813,-0.59226 1.54835,-1.50879 3.51921,-2.5456 6.17506,-5.85627 7.36815,-9.18457 0.65948,-1.83965 0.97368,-6.416053 0.50098,-7.299313 -0.54505,-1.018425 -1.40555,-0.672405 -5.89892,2.374508 -4.77324,3.236678 -6.60125,4.24185 -9.41309,5.176765 -2.07766,0.69082 -6.14285,1.27404 -7.95117,1.14111 -1.15695,-0.085 -1.14497,-0.0915 2.68799,-1.747562 7.08307,-3.060218 10.48402,-5.602231 11.38183,-8.507813 l 0.19044,-0.618165 -1.90137,0.1377 c -1.07985,0.07758 -3.29483,0.555082 -5.12842,1.105957 -6.93172,2.082578 -6.59315,2.01657 -10.65234,2.055173 -3.97931,0.03795 -5.16313,-0.230573 -1.93653,-0.439455 2.1585,-0.139718 3.88725,-0.815775 5.53564,-2.166503 1.46595,-1.201252 1.88819,-2.075317 1.88819,-3.90381 0,-2.76222 -1.64788,-4.865212 -5.21338,-6.653317 -3.23313,-1.621426 -5.40988,-2.042183 -9.60058,-1.857421 -0.54083,0.02385 -1.01026,0.05888 -1.51465,0.09082 -0.59613,-0.878055 -1.24514,-1.73022 -1.94385,-2.554688 0.81381,-1.353307 1.83274,-2.874952 2.58106,-3.760252 1.83366,-2.16933 2.06775,-2.260343 6.78222,-2.619143 4.84849,-0.368985 7.51067,-0.8991 11.52686,-2.298337 5.13234,-1.788113 5.89034,-2.130278 8.17822,-3.687015 1.23234,-0.83853 2.37477,-1.5249 2.54004,-1.5249 0.16527,0 0.59361,0.499597 0.95068,1.10889 0.79088,1.34952 4.0894,4.540732 6.37207,6.165525 0.92316,0.657105 5.80198,3.71226 10.84278,6.789547 9.47444,5.783963 11.23918,6.983888 12.77343,8.682128 1.18392,1.31046 2.54935,4.055108 3.42041,6.875978 0.64989,2.104665 0.70145,2.607727 0.71045,6.918458 0.005,2.556455 -0.0953,4.996765 -0.22412,5.422855 l -0.23437,0.77343 -0.18604,-0.77343 c -0.10218,-0.42609 -0.2,-1.4804 -0.2168,-2.34229 -0.0872,-4.471988 -2.89389,-8.891596 -5.64697,-8.891596 -0.72588,0 -0.7394,0.02948 -1.05029,2.179688 -1.20128,8.308458 -5.5472,16.273918 -10.44434,19.144038 -0.85021,0.4983 -1.59241,0.85974 -1.64941,0.80274 z M 116.96631,74.242669 c -5.83867,-5.631367 -13.40514,-8.456542 -20.97656,-8.456542 v -2.566403 c 0.860933,-0.394875 1.750163,-0.812055 2.67627,-1.256835 l 4.07227,-1.955565 1.99657,0.275385 c 1.09787,0.151185 2.80857,0.444217 3.80274,0.651855 3.27768,0.684563 8.90158,0.8973 12.67822,0.47901 1.86011,-0.206025 3.87244,-0.547725 4.47071,-0.75879 0.59826,-0.21108 2.03886,-0.556658 3.20214,-0.769043 1.16328,-0.21237 2.6971,-0.55446 3.40723,-0.75879 1.40438,-0.404077 1.93652,-0.48444 1.93652,-0.294435 0,0.06735 -1.07541,0.842633 -2.38915,1.722653 -4.38296,2.93601 -5.98538,4.241378 -9.65333,7.860353 -2.095,2.06706 -3.76758,3.92727 -5.22363,5.827147 z m 12.63428,-7.538085 -1.43701,-0.01027 0.9038,-0.773437 c 1.1403,-0.974865 7.52886,-5.231243 10.00635,-6.666503 2.11851,-1.227285 2.40039,-1.898595 1.19385,-2.84766 -1.39321,-1.095908 -9.80566,-3.370695 -12.48193,-3.375 -1.21098,-0.0022 -1.35722,-0.05407 -1.03271,-0.360345 0.20796,-0.196268 1.50522,-0.845693 2.88281,-1.442873 2.22312,-0.963727 3.3239,-1.659502 3.01904,-1.91016 -0.0557,-0.04583 -0.9724,-0.399187 -2.0376,-0.78369 -1.06518,-0.38451 -2.8672,-1.156995 -4.00342,-1.718257 l -2.06543,-1.020998 2.19434,0.130373 c 1.2072,0.07215 2.80555,0.205425 3.55078,0.295897 l 1.35498,0.165525 0.1626,-0.811522 c 0.18927,-0.94635 0.52962,-1.000313 2.6792,-0.423345 2.99277,0.803302 5.15193,0.294795 7.37695,-1.738763 l 1.41944,-1.297852 0.85986,0.99609 0.85986,0.994627 1.03711,-0.687007 1.03711,-0.685545 0.1377,0.821775 c 0.30675,1.834717 0.61038,2.242792 1.66113,2.233882 1.18355,-0.01 1.58186,-0.294547 2.51367,-1.798822 0.3959,-0.63912 0.96803,-1.433858 1.27002,-1.766603 0.49489,-0.54528 0.72357,-0.5958 2.32177,-0.506835 1.60727,0.08944 1.84166,0.17616 2.50489,0.918458 1.1448,1.2813 1.38879,2.585115 1.08252,5.783197 -0.19888,2.076855 -0.43765,3.1194 -0.97558,4.26123 -0.6522,1.38435 -0.72559,1.45698 -0.88477,0.865725 -0.16622,-0.617392 -0.26971,-0.548715 -2.354,1.571775 -3.52086,3.58203 -6.92937,5.809351 -12.83496,8.390626 -4.92153,2.151157 -8.90081,3.218355 -11.92237,3.19629 z m -14.21924,-8.403803 c -5.41087,-0.0045 -5.64364,-0.02692 -9.16699,-0.875977 -3.7613,-0.906413 -6.354587,-1.09854 -10.22461,-0.432135 v -7.120605 c 0.155115,0.15147 0.308093,0.299205 0.47754,0.473145 2.630453,2.700195 3.95695,3.088912 3.57422,1.04883 -0.23777,-1.267448 -1.841592,-3.16572 -4.05176,-5.05371 v -6.962401 c 0.521205,-0.05017 0.798,-0.117165 0.798338,-0.216802 2.7e-4,-0.09612 -0.322425,-0.4515 -0.798338,-0.908198 V 26.513666 c 1.696995,0.605887 3.602888,1.214595 5.79932,1.844242 4.93236,1.413945 9.0284,2.278995 10.17041,2.14746 l 0.83935,-0.09668 v 1.221682 c 0,1.21254 0.005,1.219433 0.71778,1.015133 0.39462,-0.113175 1.20346,-0.454335 1.79736,-0.75732 1.94371,-0.991613 1.94262,-0.997343 0.84522,4.495605 -0.42438,2.12409 -0.77391,4.015252 -0.77491,4.20117 -0.007,0.80847 0.66349,-0.256035 2.60743,-4.138185 l 2.07567,-4.145505 1.56153,0.1626 1.56006,0.164062 2.74512,-1.854495 c 1.50986,-1.019445 3.93015,-2.703157 5.37744,-3.742672 1.44728,-1.039515 2.68012,-1.891118 2.74072,-1.891118 0.0605,0 0.0521,0.813443 -0.019,1.80762 l -0.12891,1.807613 h 1.61866 1.61719 l -0.16114,2.000977 c -0.0889,1.1007 -0.23693,3.686738 -0.32813,5.746583 l -0.16552,3.745605 0.99609,0.968265 c 0.54784,0.532117 1.08612,0.966795 1.19678,0.966795 0.1107,0 0.20215,0.110753 0.20215,0.246098 0,0.29502 -1.65082,0.782655 -2.6543,0.785152 -0.39412,7.5e-4 -1.37736,-0.230107 -2.18555,-0.514162 -1.83589,-0.64524 -2.70457,-0.65355 -3.26953,-0.02933 -0.40017,0.442185 -0.95286,0.498112 -5.91357,0.593265 -4.55339,0.08734 -5.61529,0.179145 -6.31348,0.550777 -0.46158,0.245685 -0.83936,0.538418 -0.83936,0.64893 0,0.304643 1.56276,1.700093 2.58252,2.307128 0.4971,0.295897 1.99269,1.083525 3.32227,1.749022 l 2.417,1.20996 -2.08594,1.113285 c -3.04349,1.626173 -5.71875,3.497963 -5.71875,4.000485 0,0.09677 0.84238,0.247988 1.87207,0.335453 3.73983,0.317775 9.31281,0.94269 9.42773,1.057612 0.17836,0.178358 -2.30136,0.83397 -5.61914,1.485353 -2.52856,0.496447 -3.79368,0.582915 -8.52099,0.578617 z m 33.80859,-14.041995 c -0.33549,0.0375 -0.49658,-0.350865 -0.49658,-1.171875 0,-0.639112 0.0579,-1.161623 0.12891,-1.161623 0.071,0 0.36557,0.236648 0.65478,0.525878 0.28925,0.289238 0.63806,0.456645 0.77491,0.372075 0.45325,-0.280125 0.25736,0.384225 -0.26807,0.909668 -0.32841,0.328402 -0.59265,0.503377 -0.79395,0.525877 z m -3.63427,-3.394043 -0.36768,-0.881835 c -0.59955,-1.434922 -0.36881,-2.41089 0.70459,-2.985352 0.51758,-0.276998 0.53565,-0.246398 0.37207,0.625485 -0.14097,0.751492 -0.0808,0.96531 0.33252,1.186522 0.73545,0.393608 2.06855,0.0405 2.53565,-0.67236 0.40374,-0.616087 0.38881,-1.356877 -0.0835,-4.053225 l -0.17578,-0.99756 1.39453,0.18897 c 2.44146,0.331538 4.22023,1.633373 5.36865,3.927248 0.87527,1.748295 0.79378,1.88232 -1.14257,1.88232 -1.89465,0 -3.21792,0.446145 -3.80421,1.283205 -0.39234,0.560145 -0.40389,0.560317 -1.68456,0.105465 -1.20653,-0.42849 -1.35726,-0.42951 -2.36866,-0.03225 z M 117.01758,28.289058 c -0.0557,-0.006 -0.0864,-0.02528 -0.0864,-0.0615 0,-0.1449 0.31908,-0.87042 0.70899,-1.61133 0.62466,-1.18695 0.70977,-1.639252 0.72217,-3.805665 0.008,-1.352295 0.1031,-2.601405 0.21094,-2.775878 0.30678,-0.496425 0.32559,-0.418605 0.32959,1.29639 0.006,2.782778 1.12032,4.196776 3.30468,4.196776 1.05387,0 1.56966,-0.154995 2.36133,-0.710453 2.46711,-1.731023 2.86876,-1.964385 3.68994,-2.134275 2.07732,-0.429788 -0.44664,1.778363 -2.7041,2.365725 -1.41274,0.367583 -4.94587,1.745775 -7.52637,2.935545 -0.45271,0.208718 -0.84355,0.322073 -1.01074,0.304688 z m 20.47266,-2.144527 c -0.57257,0.06607 -0.57807,-0.516735 -0.56397,-2.784675 0.01,-1.547581 0.10218,-2.680898 0.20655,-2.518066 0.10437,0.162848 0.19136,0.48687 0.19335,0.720705 0.006,0.614415 1.63509,1.953878 2.77296,2.279296 0.53647,0.15342 2.6496,0.411367 4.69482,0.574222 4.61304,0.36732 4.15127,0.642938 -1.63623,0.974123 -2.29316,0.13122 -4.49279,0.36147 -4.88672,0.51123 -0.33719,0.12819 -0.5899,0.221152 -0.78076,0.243165 z"
         style="fill:#76c4c3;fill-opacity:1;fill-rule:nonzero;stroke:none;stroke-width:0.15582505"
         inkscape:connector-curvature="0" /><path
         d="m 108.16275,10.729928 c -9.233,-9.233 -24.203996,-9.233 -33.437996,0 l -59.856,59.857 c -1.31,1.31 -1.31,3.434 0,4.744 l 28.693,28.692002 c 1.31,1.31 3.435,1.31 4.745,0 L 108.16275,44.167928 c 9.234,-9.233 9.234,-24.204 0,-33.438"
         style="fill:#e45153;fill-opacity:1;fill-rule:nonzero;stroke:none;stroke-width:0.1"
         id="path146"
         inkscape:connector-curvature="0" /><path
         d="m 95.98975,38.252928 -15.348996,-15.349 c -1.626,-1.626 -4.262,-1.626 -5.888,0 l -46.98,46.979 c -1.626,1.626 -1.626,4.262 0,5.888 l 15.349,15.352 c 1.626,1.62 4.262,1.62 5.889,0 l 46.978996,-46.982 c 1.626,-1.626 1.626,-4.262 0,-5.888"
         style="fill:#eea937;fill-opacity:1;fill-rule:nonzero;stroke:none;stroke-width:0.1"
         id="path148"
         inkscape:connector-curvature="0" /><path
         d="m 18.548754,117.15293 -16.8109999,-16.81 c -0.906,-0.900002 -0.906,-2.370002 0,-3.280002 l 17.4309999,-17.43 20.093,20.09 -17.43,17.430002 c -0.907,0.91 -2.377,0.91 -3.283,0"
         style="fill:#ffffff;fill-opacity:1;fill-rule:nonzero;stroke:none;stroke-width:0.1"
         id="path150"
         inkscape:connector-curvature="0" /><path
         d="m 29.214754,89.672928 h 0.001 -0.001 m -28.1569999,9.03 c 0,0.59 0.227,1.19 0.68,1.640002 l 8.4059999,8.41 -8.4059999,-8.41 c -0.453,-0.450002 -0.68,-1.050002 -0.68,-1.640002"
         style="fill:#63a7a9;fill-opacity:1;fill-rule:nonzero;stroke:none;stroke-width:0.1"
         id="path152"
         inkscape:connector-curvature="0" /><path
         d="m 19.168754,79.632928 v 0 l 10.046,10.04 h 0.001 v 0 l -10.047,-10.04"
         style="fill:#c74849;fill-opacity:1;fill-rule:nonzero;stroke:none;stroke-width:0.1"
         id="path154"
         inkscape:connector-curvature="0" /><path
         d="m 19.168754,79.632928 v 0 l -17.4309999,17.43 v 0 c -0.453,0.45 -0.68,1.05 -0.68,1.64 0,0.59 0.227,1.19 0.68,1.640002 l 8.4059999,8.41 19.072,-19.080002 h -0.001 l -10.046,-10.04"
         style="fill:#e1e0de;fill-opacity:1;fill-rule:nonzero;stroke:none;stroke-width:0.1"
         id="path156"
         inkscape:connector-curvature="0" /><path
         d="m 30.213754,103.32293 -5.004,-5.000002 c -0.197,-0.2 -0.518,-0.2 -0.715,0 l -2.495,2.500002 c -0.197,0.19 -0.197,0.51 0,0.71 l 5.003,5.01 c 0.198,0.19 0.519,0.19 0.716,0 l 2.495,-2.5 c 0.197,-0.2 0.197,-0.52 0,-0.72"
         style="fill:#363e4c;fill-opacity:1;fill-rule:nonzero;stroke:none;stroke-width:0.1"
         id="path158"
         inkscape:connector-curvature="0" /><path
         d="m 20.367754,93.482928 -5.003,-5 c -0.198,-0.2 -0.518,-0.2 -0.716,0 l -2.494,2.49 c -0.198,0.2 -0.198,0.52 0,0.72 l 5.003,5 c 0.197,0.2 0.518,0.2 0.715,0 l 2.495,-2.49 c 0.198,-0.2 0.198,-0.52 0,-0.72"
         style="fill:#363e4c;fill-opacity:1;fill-rule:nonzero;stroke:none;stroke-width:0.1"
         id="path160"
         inkscape:connector-curvature="0" /><path
         d="m 91.443754,3.804928 c -6.051,0 -12.102,2.309 -16.719,6.925 l -59.856,59.857 c -0.655,0.655 -0.983,1.514 -0.983,2.372 0,0.859 0.328,1.717 0.983,2.372 l 14.347,14.342 6.232,-6.23 -7.675,-7.672 c -1.626,-1.626 -1.626,-4.262 0,-5.888 l 46.98,-46.979 c 0.813,-0.813 1.878,-1.22 2.944,-1.22 1.065,0 2.131,0.407 2.944,1.22 l 7.674,7.674 19.847996,-19.848 c -4.617,-4.616 -10.668,-6.925 -16.718996,-6.925"
         style="fill:#c74849;fill-opacity:1;fill-rule:nonzero;stroke:none;stroke-width:0.1"
         id="path162"
         inkscape:connector-curvature="0" /><path
         d="m 77.696754,21.683928 c -1.066,0 -2.131,0.407 -2.944,1.22 l -46.98,46.979 c -1.626,1.626 -1.626,4.262 0,5.888 l 7.675,7.672 52.867,-52.865 -7.674,-7.674 c -0.813,-0.813 -1.879,-1.22 -2.944,-1.22"
         style="fill:#cd9230;fill-opacity:1;fill-rule:nonzero;stroke:none;stroke-width:0.1"
         id="path164"
         inkscape:connector-curvature="0" /><path
         inkscape:connector-curvature="0"
         id="path4487"
         d="m 56.670241,44.283736 c 0.0034,0.04528 0.149317,0.281122 0.324169,0.52411 0.280117,0.389266 0.323702,0.481434 0.366619,0.77523 0.02676,0.183391 0.06412,0.354652 0.08304,0.38058 0.01889,0.02593 0.09303,-0.05797 0.16477,-0.186425 0.306694,-0.549193 0.759321,-1.256179 0.964213,-1.506068 0.327398,-0.3993 0.491288,-1.123402 0.175586,-0.775773 -0.124795,0.137415 -0.166458,0.231421 -0.382333,0.862689 -0.06927,0.202564 -0.141356,0.297594 -0.329934,0.434938 -0.390866,0.284672 -0.774173,0.176767 -1.137977,-0.320347 -0.224268,-0.306316 -0.23796,-0.317746 -0.228158,-0.188934 z m -5.728004,4.695555 c 0.273138,0.375031 0.554176,0.587321 1.256613,0.949223 0.53534,0.275814 1.310327,0.442536 2.411372,0.518762 0.337914,0.02339 0.632497,0.06754 0.654623,0.09811 0.02969,0.04104 -0.1681,0.207787 -0.755804,0.637168 -0.551467,0.402965 -0.838036,0.641938 -0.932745,0.778023 l -0.136713,0.196427 0.681386,-0.128239 c 1.273322,-0.239641 2.915197,-0.100481 3.320343,0.281426 0.334351,0.315171 0.04618,0.418365 -0.776435,0.278006 -0.615289,-0.104986 -0.837049,-0.06845 -1.204662,0.198467 -0.253013,0.183593 -0.906776,0.373717 -1.615225,0.469516 -0.919107,0.124284 -1.774412,0.292851 -1.960466,0.386379 -0.189886,0.09545 -0.372791,0.457325 -0.422462,0.835819 l -0.03003,0.22906 0.281699,-0.0066 c 0.342844,-0.0081 0.867074,0.09553 0.872919,0.172469 0.01041,0.136831 -0.363263,0.488036 -0.840085,0.789572 l -0.492889,0.311706 -0.02489,0.316073 c -0.01368,0.173838 -0.0013,0.471737 0.02749,0.661994 0.04224,0.279399 0.06996,0.344684 0.144098,0.339496 0.05051,-0.0035 0.337681,-0.145509 0.638203,-0.315506 0.520026,-0.294162 0.548436,-0.303346 0.588505,-0.190272 0.122634,0.346073 0.06892,0.501064 -0.397205,1.146047 -0.520713,0.720506 -0.676736,1.102082 -0.662811,1.620959 l 0.0085,0.314709 0.429408,-0.363713 0.429414,-0.36371 0.0083,0.163882 c 0.0082,0.160843 -0.07668,0.469488 -0.442912,1.61068 -0.214027,0.666919 -0.238521,1.076953 -0.08263,1.383165 0.06139,0.1205 0.127184,0.221561 0.146267,0.224574 0.01908,0.003 0.0779,-0.139533 0.130654,-0.316749 0.05278,-0.177214 0.121767,-0.341028 0.153354,-0.364033 0.03156,-0.023 0.108775,-0.207635 0.171536,-0.410299 0.137786,-0.444908 0.221913,-0.600789 1.429104,-2.64787 1.128087,-1.912943 1.707625,-2.795685 2.4297,-3.700861 1.261432,-1.5813 1.760886,-2.00372 2.953851,-2.498285 0.741118,-0.307243 0.78569,-0.333612 1.754507,-1.037934 0.846463,-0.615306 1.061717,-0.795652 1.449474,-1.214014 0.50879,-0.54894 0.867042,-0.989304 0.811887,-0.997975 -0.03556,-0.0056 -1.11427,0.608745 -1.824881,1.039269 -0.19565,0.118538 -0.366052,0.20135 -0.378664,0.184034 -0.06546,-0.08992 0.169422,-0.773557 0.502091,-1.461177 l 0.227905,-0.471081 -0.590261,0.09853 c -0.324642,0.05419 -0.694584,0.108214 -0.822095,0.120048 -0.261587,0.02428 -0.723222,-0.02204 -0.762924,-0.07655 -0.01441,-0.01978 0.01521,-0.121142 0.06579,-0.22526 0.07651,-0.157491 0.254249,-0.312333 1.057648,-0.921373 0.875254,-0.663517 0.967128,-0.745628 0.9811,-0.876902 0.01975,-0.185333 0.17608,-0.297116 0.588679,-0.420919 0.181632,-0.05449 0.387858,-0.141223 0.458279,-0.192729 0.179236,-0.131219 0.410864,-0.433527 0.372418,-0.486317 -0.01769,-0.02422 -0.04824,-0.03224 -0.06807,-0.01782 -0.01981,0.01442 -0.172949,0.0067 -0.340322,-0.01709 l -0.304332,-0.04335 -0.458405,-0.691766 c -0.25212,-0.380477 -0.562764,-0.86239 -0.690301,-1.07093 l -0.231889,-0.379166 -0.289532,0.210865 -0.289525,0.210865 -0.212432,-0.340302 c -0.116834,-0.187165 -0.221279,-0.333853 -0.232122,-0.325959 -0.01081,0.0079 -0.120738,0.320852 -0.244238,0.695474 -0.123502,0.374623 -0.3369,0.991377 -0.474213,1.370564 l -0.249665,0.68943 -0.300614,0.174259 -0.300622,0.174257 0.16882,1.012375 c 0.158092,0.948005 0.176801,1.225801 0.07277,1.080167 -0.02402,-0.03341 -0.207854,-0.417118 -0.408736,-0.852505 -0.519492,-1.12592 -0.518611,-1.125092 -0.737187,-0.694345 -0.06679,0.131618 -0.167132,0.297947 -0.222995,0.369626 -0.100847,0.129394 -0.102702,0.128765 -0.260726,-0.08821 L 56.98907,46.892422 56.851497,47.01909 c -0.187203,0.172362 -1.032772,0.551401 -2.099634,0.94119 -1.772275,0.647523 -2.827934,0.857316 -3.713692,0.738024 l -0.333237,-0.04488 z m 9.445352,-6.492466 c 0.390714,0.543548 0.39746,0.546942 0.572025,0.279387 0.05098,-0.07814 0.414408,-0.405792 0.807643,-0.728124 0.992443,-0.813505 1.039298,-0.922875 0.165978,-0.387417 -0.38719,0.237397 -0.798883,0.466372 -0.914876,0.508835 -0.246014,0.09006 -0.712053,0.0628 -0.793144,-0.0464 -0.03083,-0.04156 -0.08875,-0.08828 -0.128652,-0.103815 -0.0399,-0.01554 0.09107,0.199351 0.291026,0.477534 z m 3.566925,0.339192 c 0.435906,0.420928 0.535132,0.5514 0.543179,0.714255 0.0093,0.188435 -0.183126,0.425543 -0.366018,0.450959 -0.102796,0.01429 -0.141457,-0.01624 -0.214167,-0.169086 -0.08436,-0.17733 -0.09166,-0.180454 -0.148176,-0.06343 -0.117202,0.242684 -0.03116,0.447406 0.263129,0.626034 l 0.180911,0.10981 0.138013,-0.216732 c 0.1292,-0.2029 0.15653,-0.222221 0.42826,-0.302785 0.288444,-0.08551 0.290239,-0.087 0.28745,-0.238366 -0.004,-0.226189 0.174539,-0.4787 0.513567,-0.725616 0.346488,-0.25235 0.343572,-0.286965 -0.0409,-0.485734 -0.504438,-0.260798 -0.992356,-0.26176 -1.472434,-0.0029 l -0.274165,0.147826 z m 1.707472,0.985522 c -0.01068,0.0989 -0.0092,0.315602 0.0034,0.481558 0.02929,0.390611 -0.0047,0.493543 -0.215294,0.649569 -0.186856,0.138535 -0.294463,0.105003 -0.588452,-0.183321 l -0.131781,-0.129233 -0.09614,0.258012 -0.09616,0.258011 -0.283574,-0.06595 -0.283586,-0.06595 -0.08492,0.417094 c -0.133122,0.653853 -0.453134,1.026331 -1.093338,1.272617 -0.45984,0.176897 -0.513834,0.230971 -0.424369,0.424975 l 0.07662,0.166168 -0.263896,0.147153 c -0.145139,0.08093 -0.448323,0.265313 -0.673746,0.40973 l -0.40985,0.262577 0.502644,-0.08662 c 0.276454,-0.04764 0.699589,-0.143909 0.940305,-0.213924 0.240716,-0.07001 0.450705,-0.126536 0.466659,-0.125599 0.08721,0.0051 -0.01901,0.273373 -0.291187,0.735543 -0.168672,0.28639 -0.316201,0.571619 -0.327838,0.633843 -0.01815,0.09709 0.01468,0.08712 0.231642,-0.07034 0.47945,-0.348009 2.281245,-1.037316 2.673366,-1.022782 0.339582,0.01259 0.376808,0.16968 0.157664,0.665379 -0.25627,0.579697 -0.844775,2.173823 -0.921769,2.49687 l -0.06105,0.256047 0.258605,-0.185398 c 0.543546,-0.389831 1.116625,-1.099328 1.716933,-2.125639 0.720341,-1.231525 1.039792,-2.074418 1.202987,-3.174229 0.09661,-0.651071 0.106053,-0.676733 0.216256,-0.587922 0.105538,0.08505 0.109375,0.06231 0.04564,-0.270403 -0.05258,-0.274423 -0.145667,-0.49198 -0.380745,-0.889526 -0.361975,-0.612175 -0.575614,-0.81369 -0.947445,-0.893772 -0.215414,-0.04639 -0.26858,-0.0312 -0.567833,0.162258 -0.297579,0.192363 -0.332096,0.231192 -0.349592,0.393259 z m -0.59786,0.671831 c 0.171189,0.235056 0.27259,0.218086 0.315167,-0.05274 0.02556,-0.162498 -0.02609,-0.306842 -0.07066,-0.197645 -0.01348,0.03296 -0.09767,0.04844 -0.187116,0.03438 -0.08944,-0.01406 -0.173024,-0.018 -0.185734,-0.0087 -0.01274,0.0093 0.04504,0.110395 0.128338,0.224758 z m -0.843701,5.007221 c -0.100441,0.129109 -0.33028,0.389873 -0.510758,0.579476 -0.180477,0.189604 -0.393222,0.439429 -0.472765,0.555166 -0.07955,0.115737 -0.394983,0.438934 -0.700983,0.718212 -0.621274,0.56703 -1.655267,1.261969 -2.330988,1.56663 -0.204959,0.09241 -0.549499,0.262947 -0.765653,0.378971 l -0.393002,0.210956 -0.473799,0.880669 c -0.875188,1.626764 -1.551404,2.635387 -2.500463,3.729594 -0.82329,0.949203 -0.792816,0.891527 -0.863238,1.633904 -0.08999,0.94859 0.06552,4.241848 0.245988,5.209347 0.575587,3.085845 -0.140589,5.066386 -3.209453,8.875462 -1.563108,1.940132 -1.946594,2.446408 -2.163143,2.855737 -0.393822,0.74445 -0.353787,0.866999 0.10295,0.315117 0.42565,-0.51433 1.445431,-1.534286 2.209456,-2.209849 0.517257,-0.457358 0.70911,-0.600961 0.91535,-0.685132 0.143511,-0.05857 0.270228,-0.08144 0.281592,-0.05083 0.01134,0.03061 -0.170468,0.370811 -0.404079,0.755989 -0.416816,0.687249 -0.815162,1.532989 -1.033566,2.19439 -0.06065,0.183601 -0.0857,0.31595 -0.05571,0.294109 0.03003,-0.02184 0.323008,-0.427704 0.651161,-0.90192 0.789379,-1.140758 1.593733,-2.200647 2.447215,-3.224671 0.798789,-0.958392 0.900992,-1.092564 1.472595,-1.933213 0.417377,-0.613829 0.542446,-0.764444 0.516737,-0.622288 -0.0073,0.04064 -0.32499,0.629128 -0.705861,1.30775 -1.197936,2.13443 -2.335666,5.090696 -2.329881,6.05392 6.67e-4,0.164311 0.01715,0.301154 0.0359,0.304103 0.01875,0.0029 0.115981,-0.275302 0.216076,-0.618327 0.1001,-0.343023 0.28446,-0.82371 0.409696,-1.068195 0.125235,-0.244481 0.256756,-0.531444 0.292267,-0.637694 0.298841,-0.894163 2.018818,-3.436815 2.52834,-3.737676 0.160047,-0.09449 0.15982,-0.08725 -0.04184,1.325766 -0.193168,1.353509 -0.270649,2.541295 -0.174391,2.673458 0.02455,0.03368 0.08242,0.266086 0.128651,0.516475 0.08976,0.486206 0.188164,0.716149 0.180691,0.422267 -0.02195,-0.862842 0.26433,-3.042581 0.534918,-4.073091 0.432837,-1.648434 1.695342,-4.447721 1.887176,-4.18433 0.05678,0.07797 0.112598,0.601651 0.214,2.007974 0.105906,1.468744 0.25294,2.398693 0.511365,3.234178 0.175125,0.566168 0.224702,0.665867 0.56656,1.139331 0.446421,0.6183 0.64843,0.735632 0.41384,0.240372 -0.501177,-1.058057 -0.687732,-1.839068 -0.753349,-3.153841 -0.13056,-2.616389 0.62509,-6.391776 1.81179,-9.052041 0.214733,-0.481384 0.500322,-0.808491 0.593803,-0.680137 0.02135,0.02931 0.21839,0.370341 0.437881,0.757854 0.420099,0.74171 1.162498,1.750148 1.351449,1.83577 0.07954,0.03603 0.05472,-0.02733 -0.101728,-0.259689 -0.567567,-0.842985 -0.928127,-2.469002 -0.805188,-3.631156 0.03517,-0.332138 0.106914,-0.562487 0.269696,-0.865476 0.241296,-0.449134 0.242938,-0.416743 -0.05498,-1.086926 -0.398734,-0.897014 -0.711519,-1.843259 -0.894899,-2.707282 -0.32978,-1.553881 -0.350838,-2.592418 -0.08537,-4.210257 0.184694,-1.125589 0.30145,-1.56807 0.703099,-2.664636 0.120392,-0.328681 0.211717,-0.607458 0.202937,-0.619511 -0.02476,-0.034 -0.109442,0.0499 -0.308082,0.305224 z m 3.481797,-1.171941 c -0.206513,0.576723 -0.297526,0.736487 -0.98287,1.725309 -0.536292,0.773781 -0.94344,1.21573 -1.76294,1.913626 -0.79684,0.678604 -0.826953,0.725287 -0.872352,1.352432 -0.03217,0.444339 0.03423,1.3669 0.114406,1.590155 0.04464,0.124173 0.05598,0.124598 0.157223,0.0059 0.06005,-0.07038 0.373445,-0.33887 0.69648,-0.596661 0.725805,-0.579206 1.170244,-0.78753 1.960085,-0.918746 0.871038,-0.144704 1.43986,0.01682 1.79984,0.51109 0.238294,0.327187 0.276514,0.538627 0.170749,0.944622 -0.118931,0.456523 -0.340023,0.802867 -0.708057,1.109171 -0.550138,0.457874 -0.303237,0.351685 0.403872,-0.173697 0.721314,-0.535917 0.669176,-0.480031 1.638125,-1.756043 0.256303,-0.337532 0.59044,-0.71175 0.773554,-0.866359 l 0.322347,-0.272169 0.04631,0.13521 c 0.218017,0.636924 -0.05925,1.535027 -0.927848,3.005703 -0.470042,0.79585 -0.471149,0.798742 -0.25304,0.663183 0.340904,-0.211881 0.992344,-0.846178 1.274089,-1.240557 0.381305,-0.533738 0.577416,-0.951925 1.009719,-2.153155 0.406954,-1.130798 0.515709,-1.304811 0.745962,-1.193608 0.199694,0.09645 0.739937,0.956232 0.861677,1.371359 0.220265,0.75105 0.176467,1.689596 -0.121506,2.603736 -0.107273,0.329126 -0.135751,0.496482 -0.08029,0.471848 0.116155,-0.05158 0.482821,-0.764119 0.613127,-1.191484 0.138288,-0.453536 0.555864,-2.273854 0.73486,-3.20345 0.269001,-1.397015 0.486563,-1.666432 1.010132,-1.250857 0.254408,0.201934 0.634686,0.881396 0.863345,1.542574 0.221353,0.640057 0.439896,1.894267 0.408849,2.346367 -0.01375,0.200229 -0.01061,0.366317 0.0071,0.369089 0.01762,0.0028 0.103383,-0.158573 0.190579,-0.358539 0.502243,-1.151785 0.241757,-3.143325 -0.626071,-4.78658 -0.224596,-0.425279 -0.225884,-0.43237 -0.096,-0.526969 0.492629,-0.358789 1.570787,0.06619 2.169188,0.85504 0.115327,0.152037 0.270082,0.327908 0.343893,0.390833 l 0.134203,0.114408 -0.05905,-0.169141 c -0.03249,-0.09303 -0.332429,-0.542846 -0.666546,-0.999598 -0.563331,-0.770233 -0.638062,-0.853303 -1.028642,-1.145209 -0.523489,-0.391245 -1.1257,-0.704567 -1.508333,-0.784765 -0.495858,-0.103932 -0.967635,-0.08858 -3.416759,0.111184 -1.303034,0.106285 -2.574368,0.195476 -2.825193,0.198205 -0.620206,0.0067 -1.626415,-0.134557 -1.943805,-0.272968 -0.143304,-0.0625 -0.28474,-0.096 -0.314313,-0.07446 -0.02956,0.02154 -0.144786,0.29333 -0.256023,0.603979 z"
         style="fill:#363e4c;fill-opacity:1;stroke-width:0.05716295" /></g></g></svg>